<svg width="131" height="49" viewBox="0 0 131 49" fill="none" xmlns="http://www.w3.org/2000/svg">
<path d="M126.978 14.5288H130.324V33.8436H126.978V14.5288ZM107.132 31.2201L109.261 28.7107C111.086 30.4217 113.481 31.2962 115.725 31.2962C118.31 31.2962 119.869 30.1173 119.869 28.5206C119.869 27.3799 119.032 26.4675 116.561 25.8971L113.177 25.1367C109.299 24.2622 107.664 22.5891 107.664 19.9659C107.664 16.4679 110.554 14.0726 115.078 14.0726C118.196 14.0726 121.086 15.1751 122.911 17.1523L120.668 19.4717C119.071 17.8745 117.093 17.0764 114.85 17.0764C112.303 17.0764 110.934 18.1407 110.934 19.6997C110.934 20.8404 111.656 21.5628 114.318 22.1711L117.702 22.9315C121.618 23.806 123.139 25.593 123.139 28.2544C123.139 31.8666 120.363 34.2998 115.611 34.2998C112.303 34.2998 109.071 33.1211 107.132 31.2201ZM88.4644 22.057H101.088C100.593 18.7113 98.3881 16.9623 95.0801 16.9623C91.6962 16.9623 89.2248 18.8252 88.4644 22.057ZM104.395 24.9465H88.2744C88.5406 29.0148 91.24 31.3342 95.1181 31.3342C97.7416 31.3342 99.8707 30.2696 101.506 28.0644L103.901 29.8893C102.038 32.6649 98.92 34.2998 95.0422 34.2998C88.9968 34.2998 84.8523 30.2314 84.8523 24.3384C84.8523 18.331 89.1868 14.0726 95.0801 14.0726C100.593 14.0726 104.509 17.8366 104.509 23.5019C104.509 24.0722 104.471 24.4905 104.395 24.9465ZM64.2078 24.3004C64.2078 18.4831 68.618 14.0726 74.3213 14.0726C77.629 14.0726 80.7088 15.5174 82.5719 18.1789L79.9104 20.1939C78.3514 18.1028 76.4124 17.1144 74.2833 17.1144C70.5952 17.1144 67.6676 20.0418 67.6676 24.1863C67.6676 28.4065 70.6712 31.258 74.3213 31.258C76.6786 31.258 78.8079 30.0794 80.2905 28.0262L82.8381 29.8893C80.9749 32.7029 77.8572 34.2998 74.2833 34.2998C68.4659 34.2998 64.2078 30.0794 64.2078 24.3004ZM56.9463 14.5288H60.2922V33.8436H56.9463V14.5288Z" fill="white"/>
<path d="M12.7998 11.5987C13.7926 10.6845 14.8917 9.88543 16.0755 9.21761L12.2557 3.96006C11.0964 4.66265 10.0012 5.46025 8.98125 6.34284L12.7998 11.5987ZM30.1721 33.5808C30.6822 33.2712 31.1622 32.9181 31.6113 32.53L35.0687 37.2887C34.6083 37.6634 34.1264 38.0116 33.6265 38.3356L30.1721 33.5808ZM32.6827 31.462C33.0878 30.9967 33.4544 30.4969 33.7742 29.9655L38.5305 33.4211C38.1947 33.9413 37.8333 34.4428 37.4429 34.9206L32.6827 31.462ZM34.4325 28.681C34.6832 28.0965 34.8811 27.4845 35.0244 26.8517L40.6233 28.671C40.4602 29.2959 40.2582 29.9047 40.026 30.4983L34.4325 28.681ZM27.1254 34.8258C27.6867 34.6931 28.2314 34.5177 28.7544 34.2998L30.5715 39.8906C30.0413 40.0939 29.4987 40.2714 28.9437 40.4198L27.1254 34.8258ZM35.0403 22.2171C34.8909 21.5361 34.6766 20.8798 34.4033 20.2546L40.0003 18.436C40.2521 19.072 40.4695 19.7254 40.6417 20.3971L35.0403 22.2171ZM23.8552 40.9603V35.0785C24.1265 35.0991 24.3996 35.1131 24.6758 35.1131C24.9523 35.1131 25.2253 35.0991 25.4964 35.0785V40.9603C25.2246 40.9739 24.951 40.9807 24.6758 40.9809C24.4007 40.9806 24.1272 40.9737 23.8552 40.9603ZM14.3921 27.1313C14.505 27.5744 14.6483 28.0051 14.815 28.4239L9.22393 30.24C9.06671 29.8168 8.92933 29.3843 8.80664 28.9455L14.3921 27.1313ZM15.6868 30.1401C15.9415 30.5449 16.2214 30.932 16.5268 31.2977L11.7754 34.7506C11.4789 34.3779 11.1968 33.9932 10.9328 33.595L15.6868 30.1401ZM20.6615 34.325C21.143 34.5221 21.6421 34.6843 22.1559 34.8096L20.339 40.4002C19.8305 40.262 19.3323 40.1005 18.8445 39.9159L20.6615 34.325ZM17.8433 32.6189C18.2256 32.9409 18.6309 33.236 19.0565 33.5022L15.6026 38.257C15.1846 37.9807 14.7805 37.6851 14.3901 37.3729L17.8433 32.6189ZM14.0627 24.5C14.0627 24.7167 14.0713 24.9313 14.084 25.1448H8.21131C8.20298 24.9305 8.1949 24.7162 8.1949 24.5C8.1949 24.2838 8.20298 24.0695 8.21131 23.8552H14.084C14.0713 24.0687 14.0627 24.2833 14.0627 24.5ZM16.4531 17.7912C16.2112 18.0875 15.9861 18.3983 15.7767 18.7201L11.0217 15.2686C11.2367 14.951 11.4659 14.6441 11.702 14.3429L16.4531 17.7912ZM35.2891 24.5C35.2891 24.1638 35.2715 23.8317 35.2409 23.5035H41.1241C41.144 23.8334 41.1569 24.1652 41.1569 24.5C41.1569 24.835 41.144 25.1666 41.1241 25.4965H35.2409C35.2715 25.1683 35.2891 24.8362 35.2891 24.5ZM9.20018 18.8203L14.7918 20.6354C14.6446 21.0118 14.5163 21.398 14.4122 21.794L8.82745 19.981C8.93912 19.5885 9.06059 19.2001 9.20018 18.8203ZM33.8447 19.1572C33.484 18.5396 33.0638 17.9614 32.5902 17.4312L37.3535 13.9704C37.8078 14.517 38.2249 15.095 38.6064 15.6977L33.8447 19.1572ZM18.888 15.6058C18.5859 15.8027 18.2949 16.014 18.0153 16.2396L14.5638 11.4907C14.8474 11.27 15.1358 11.0555 15.4339 10.8532L18.888 15.6058ZM31.7713 16.6089C31.2254 16.1176 30.6274 15.6842 29.9882 15.3137L33.4487 10.5505C34.0722 10.9434 34.6685 11.3751 35.232 11.8455L31.7713 16.6089ZM29.0179 14.8163C28.3323 14.5085 27.6091 14.2692 26.8556 14.112L28.6756 8.51037C29.4179 8.69551 30.1393 8.93256 30.8382 9.21443L29.0179 14.8163ZM25.8483 8.06516V13.9528C25.4631 13.9104 25.0723 13.8869 24.6758 13.8869C24.2796 13.8869 23.8887 13.9104 23.5035 13.9528V8.06516C23.8912 8.03797 24.2813 8.01912 24.6758 8.01912C25.0706 8.01912 25.4607 8.03797 25.8483 8.06516ZM20.0716 8.67591C19.7476 8.76995 19.4271 8.87133 19.1116 8.98447L20.9277 14.5699C21.2409 14.4519 21.5606 14.3486 21.887 14.2599L20.0716 8.67591ZM26.0193 48.462V41.9813C25.5753 42.0151 25.1283 42.0376 24.6758 42.0376C24.2235 42.0376 23.7766 42.0151 23.3326 41.9813V48.462C23.7773 48.4865 24.2249 48.5 24.6758 48.5C25.1269 48.5 25.5745 48.4865 26.0193 48.462ZM20.6192 41.5608C19.692 41.3411 18.7923 41.0509 17.9286 40.6907L15.9259 46.8543C16.7986 47.1962 17.6964 47.4884 18.6155 47.7276L20.6192 41.5608ZM11.4688 36.0319C10.7822 35.2458 10.1626 34.3999 9.6231 33.4997L4.37853 37.3102C4.93835 38.1955 5.55425 39.0418 6.22206 39.8439L11.4688 36.0319ZM11.7992 44.7559L15.608 39.5135C14.7553 38.9975 13.9533 38.4076 13.2036 37.7586L9.39193 43.0047C10.156 43.6365 10.96 44.2213 11.7992 44.7559ZM39.5453 33.7953C39.1148 34.4827 38.6395 35.1385 38.1205 35.7574L43.3619 39.5595C43.8691 38.9312 44.3452 38.2768 44.7879 37.5985L39.5453 33.7953ZM41.6768 28.8164C41.4865 29.5675 41.2451 30.2973 40.9618 31.006L47.1215 33.0099C47.3926 32.2954 47.6306 31.5646 47.8334 30.8192L41.6768 28.8164ZM31.2947 40.7414C30.5123 41.0605 29.7017 41.325 28.8673 41.5297L30.8696 47.6916C31.697 47.4712 32.5071 47.2077 33.2969 46.9036L31.2947 40.7414ZM8.57889 31.4644C8.14519 30.4636 7.80406 29.414 7.5621 28.3267L1.39086 30.3318C1.65951 31.4081 2.00088 32.4555 2.40961 33.4689L8.57889 31.4644ZM36.1195 37.7833C35.4755 38.3388 34.7912 38.8476 34.0708 39.3056L37.8854 44.5389C38.5971 44.069 39.2828 43.5635 39.9386 43.0225L36.1195 37.7833ZM22.4323 0.605305V7.11033L22.4326 7.11008C22.7272 7.07262 23.6656 6.96241 24.6758 6.96241C25.79 6.96241 26.6246 7.07261 26.9192 7.11033L26.9195 0.605305C26.5526 0.571266 25.6446 0.5 24.6758 0.5C23.5018 0.5 22.7992 0.571266 22.4323 0.605305ZM38.2986 13.4589C38.6923 13.944 39.059 14.4517 39.3998 14.9779L44.6417 11.1794C44.2936 10.6583 43.9262 10.1522 43.5395 9.66111L38.2986 13.4589ZM7.5217 20.8477C7.7781 19.6379 8.16111 18.4759 8.6526 17.3725L2.47695 15.3658C2.01631 16.4845 1.63771 17.6458 1.3485 18.8421L7.5217 20.8477ZM42.2134 24.5C42.2134 24.8678 42.1984 25.232 42.1762 25.5942H48.6501C48.6663 25.2315 48.676 24.8668 48.676 24.5C48.676 24.1332 48.6663 23.7688 48.6501 23.4058H42.1762C42.1984 23.768 42.2134 24.1322 42.2134 24.5ZM7.13844 24.5C7.13844 23.914 7.16832 23.3353 7.2244 22.764H0.738963C0.697821 23.3375 0.675781 23.9162 0.675781 24.5C0.675781 25.0838 0.697821 25.6627 0.738963 26.236H7.22464C7.16832 25.6649 7.13844 25.086 7.13844 24.5ZM47.1785 16.1399L41.021 18.1446C41.2586 18.7549 41.4655 19.3806 41.6345 20.0219L47.7893 18.0177C47.6109 17.3805 47.4073 16.7546 47.1785 16.1399ZM9.44433 15.8113C10.0847 14.6912 10.8412 13.6457 11.7039 12.698L6.45299 8.88285C5.6189 9.8553 4.86096 10.8951 4.18898 11.9932L9.44433 15.8113ZM29.3615 7.6006C29.855 7.737 30.3406 7.89226 30.8157 8.06981L32.8145 1.91645C32.3369 1.74421 31.8525 1.5869 31.3611 1.44454L29.3615 7.6006ZM15.26 2.41847L17.2696 8.60294C18.5452 8.00761 19.9036 7.56117 21.3237 7.28616L19.3144 1.10194C17.9122 1.42176 16.5569 1.86477 15.26 2.41847ZM38.0784 4.5882C38.5471 4.90444 39.0036 5.23643 39.4478 5.58417L35.6481 10.8231C35.2083 10.4698 34.7518 10.138 34.2787 9.82763L38.0784 4.5882Z" fill="white"/>
</svg>
