<svg width="48" height="48" viewBox="0 0 48 48" fill="none" xmlns="http://www.w3.org/2000/svg">
<path d="M12.124 11.0987C13.1168 10.1845 14.2158 9.38543 15.3996 8.71761L11.5798 3.46006C10.4205 4.16265 9.32538 4.96025 8.30542 5.84284L12.124 11.0987ZM29.4962 33.0808C30.0063 32.7712 30.4863 32.4181 30.9354 32.03L34.3927 36.7887C33.9323 37.1634 33.4504 37.5116 32.9506 37.8356L29.4962 33.0808ZM32.0068 30.962C32.4118 30.4967 32.7784 29.9969 33.0983 29.4655L37.8545 32.9211C37.5187 33.4413 37.1573 33.9428 36.7669 34.4206L32.0068 30.962ZM33.7565 28.181C34.0073 27.5965 34.2051 26.9845 34.3484 26.3517L39.9473 28.171C39.7842 28.7959 39.5822 29.4047 39.35 29.9983L33.7565 28.181ZM26.4495 34.3258C27.0108 34.1931 27.5554 34.0177 28.0785 33.7998L29.8956 39.3906C29.3654 39.5939 28.8227 39.7714 28.2678 39.9198L26.4495 34.3258ZM34.3643 21.7171C34.2149 21.0361 34.0007 20.3798 33.7274 19.7546L39.3243 17.936C39.5761 18.572 39.7935 19.2254 39.9657 19.8971L34.3643 21.7171ZM23.1793 40.4603V34.5785C23.4506 34.5991 23.7236 34.6131 23.9999 34.6131C24.2764 34.6131 24.5494 34.5991 24.8205 34.5785V40.4603C24.5487 40.4739 24.2751 40.4807 23.9999 40.4809C23.7248 40.4806 23.4512 40.4737 23.1793 40.4603ZM13.7162 26.6313C13.8291 27.0744 13.9724 27.5051 14.1392 27.9239L8.5481 29.74C8.39088 29.3168 8.2535 28.8843 8.13081 28.4455L13.7162 26.6313ZM15.011 29.6401C15.2657 30.0449 15.5456 30.432 15.8509 30.7977L11.0996 34.2506C10.803 33.8779 10.5209 33.4932 10.2569 33.095L15.011 29.6401ZM19.9857 33.825C20.4671 34.0221 20.9662 34.1843 21.48 34.3096L19.6631 39.9002C19.1546 39.762 18.6564 39.6005 18.1686 39.4159L19.9857 33.825ZM17.1675 32.1189C17.5497 32.4409 17.955 32.736 18.3807 33.0022L14.9267 37.757C14.5087 37.4807 14.1046 37.1851 13.7143 36.8729L17.1675 32.1189ZM13.3869 24C13.3869 24.2167 13.3954 24.4313 13.4082 24.6448H7.53549C7.52716 24.4305 7.51908 24.2162 7.51908 24C7.51908 23.7838 7.52716 23.5695 7.53549 23.3552H13.4082C13.3954 23.5687 13.3869 23.7833 13.3869 24ZM15.7772 17.2912C15.5353 17.5875 15.3102 17.8983 15.1009 18.2201L10.3458 14.7686C10.5608 14.451 10.7901 14.1441 11.0261 13.8429L15.7772 17.2912ZM34.6131 24C34.6131 23.6638 34.5955 23.3317 34.5649 23.0035H40.4481C40.4679 23.3334 40.4809 23.6652 40.4809 24C40.4809 24.335 40.4679 24.6666 40.4481 24.9965H34.5649C34.5955 24.6683 34.6131 24.3362 34.6131 24ZM8.52435 18.3203L14.1159 20.1354C13.9687 20.5118 13.8404 20.898 13.7363 21.294L8.15163 19.481C8.2633 19.0885 8.38476 18.7001 8.52435 18.3203ZM33.1688 18.6572C32.8081 18.0396 32.3878 17.4614 31.9142 16.9312L36.6776 13.4704C37.1318 14.017 37.5489 14.595 37.9304 15.1977L33.1688 18.6572ZM18.2122 15.1058C17.91 15.3027 17.619 15.514 17.3394 15.7396L13.8879 10.9907C14.1715 10.77 14.46 10.5555 14.758 10.3532L18.2122 15.1058ZM31.0953 16.1089C30.5494 15.6176 29.9514 15.1842 29.3123 14.8137L32.7728 10.0505C33.3963 10.4434 33.9926 10.8751 34.5561 11.3455L31.0953 16.1089ZM28.342 14.3163C27.6563 14.0085 26.9332 13.7692 26.1796 13.612L27.9997 8.01037C28.7419 8.19551 29.4634 8.43256 30.1623 8.71443L28.342 14.3163ZM25.1724 7.56516V13.4528C24.7872 13.4104 24.3964 13.3869 23.9999 13.3869C23.6036 13.3869 23.2128 13.4104 22.8276 13.4528V7.56516C23.2153 7.53797 23.6054 7.51912 23.9999 7.51912C24.3946 7.51912 24.7847 7.53797 25.1724 7.56516ZM19.3957 8.17591C19.0717 8.26995 18.7512 8.37133 18.4358 8.48447L20.2518 14.0699C20.565 13.9519 20.8847 13.8486 21.2111 13.7599L19.3957 8.17591ZM25.3433 47.962V41.4813C24.8994 41.5151 24.4524 41.5376 23.9999 41.5376C23.5476 41.5376 23.1006 41.5151 22.6567 41.4813V47.962C23.1014 47.9865 23.549 48 23.9999 48C24.451 48 24.8986 47.9865 25.3433 47.962ZM19.9433 41.0608C19.0161 40.8411 18.1164 40.5509 17.2527 40.1907L15.25 46.3543C16.1228 46.6962 17.0205 46.9884 17.9396 47.2276L19.9433 41.0608ZM10.793 35.5319C10.1063 34.7458 9.48676 33.8999 8.94727 32.9997L3.70272 36.8102C4.26254 37.6955 4.87844 38.5418 5.54625 39.3439L10.793 35.5319ZM11.1234 44.2559L14.9321 39.0135C14.0794 38.4975 13.2774 37.9076 12.5278 37.2586L8.7161 42.5047C9.48015 43.1365 10.2841 43.7213 11.1234 44.2559ZM38.8693 33.2953C38.4388 33.9827 37.9635 34.6385 37.4445 35.2574L42.6859 39.0595C43.1931 38.4312 43.6691 37.7768 44.1119 37.0985L38.8693 33.2953ZM41.0008 28.3164C40.8105 29.0675 40.5691 29.7973 40.2857 30.506L46.4454 32.5099C46.7165 31.7954 46.9546 31.0646 47.1573 30.3192L41.0008 28.3164ZM30.6187 40.2414C29.8363 40.5605 29.0257 40.825 28.1914 41.0297L30.1936 47.1916C31.0211 46.9712 31.8312 46.7077 32.621 46.4036L30.6187 40.2414ZM7.90307 30.9644C7.46937 29.9636 7.12824 28.914 6.88628 27.8267L0.715076 29.8318C0.98372 30.9081 1.3251 31.9555 1.73382 32.9689L7.90307 30.9644ZM35.4436 37.2833C34.7995 37.8388 34.1153 38.3476 33.3948 38.8056L37.2094 44.0389C37.9211 43.569 38.6068 43.0635 39.2626 42.5225L35.4436 37.2833ZM21.7564 0.105305V6.61033L21.7567 6.61008C22.0513 6.57262 22.9897 6.46241 23.9999 6.46241C25.1141 6.46241 25.9487 6.57261 26.2433 6.61033L26.2436 0.105305C25.8767 0.0712662 24.9687 0 23.9999 0C22.8259 0 22.1233 0.0712662 21.7564 0.105305ZM37.6226 12.9589C38.0164 13.444 38.383 13.9517 38.7238 14.4779L43.9657 10.6794C43.6176 10.1583 43.2502 9.65219 42.8635 9.16111L37.6226 12.9589ZM6.84588 20.3477C7.10228 19.1379 7.48528 17.9759 7.97678 16.8725L1.80116 14.8658C1.34052 15.9845 0.961924 17.1458 0.67271 18.3421L6.84588 20.3477ZM41.5374 24C41.5374 24.3678 41.5224 24.732 41.5002 25.0942H47.974C47.9902 24.7315 48 24.3668 48 24C48 23.6332 47.9902 23.2688 47.974 22.9058H41.5002C41.5224 23.268 41.5374 23.6322 41.5374 24ZM6.46263 24C6.46263 23.414 6.4925 22.8353 6.54858 22.264H0.0631813C0.0220399 22.8375 0 23.4162 0 24C0 24.5838 0.0220399 25.1627 0.0631813 25.736H6.54883C6.4925 25.1649 6.46263 24.586 6.46263 24ZM46.5025 15.6399L40.345 17.6446C40.5826 18.2549 40.7895 18.8806 40.9585 19.5219L47.1133 17.5177C46.9348 16.8805 46.7312 16.2546 46.5025 15.6399ZM8.7685 15.3113C9.40889 14.1912 10.1654 13.1457 11.0281 12.198L5.77718 8.38285C4.94309 9.3553 4.18516 10.3951 3.51318 11.4932L8.7685 15.3113ZM28.6856 7.1006C29.179 7.237 29.6647 7.39226 30.1397 7.56981L32.1385 1.41645C31.661 1.24421 31.1765 1.0869 30.6851 0.944542L28.6856 7.1006ZM14.5841 1.91847L16.5937 8.10294C17.8693 7.50761 19.2277 7.06117 20.6478 6.78616L18.6385 0.60194C17.2363 0.921764 15.8811 1.36477 14.5841 1.91847ZM37.4024 4.0882C37.8711 4.40444 38.3276 4.73643 38.7718 5.08417L34.9721 10.3231C34.5323 9.96981 34.0758 9.63799 33.6027 9.32763L37.4024 4.0882Z" fill="white"/>
</svg>
